<svg xmlns="http://www.w3.org/2000/svg" xmlns:xlink="http://www.w3.org/1999/xlink" version="1.1" x="0px" y="0px" viewBox="0 0 1000 1000" enable-background="new 0 0 1000 1000" xml:space="preserve">
<g><g transform="translate(0.000000,192.000000) scale(0.100000,-0.100000)"><path d="M8224.4,774.4C7143.7-4.4,5861.9-1168.1,4991.2-2148.1c-245-280-507.5-577.5-581.9-656.3l-131.3-144.4L3293.7-2380c-542.5,310.6-1006.3,568.7-1028.1,568.7c-26.3,0-170.6-126.9-323.7-280l-275.6-275.6l700-870.6c783.1-975.7,1321.3-1706.3,1675.6-2261.9c131.3-205.6,245-376.3,258.1-380.6c13.1,0,70,91.9,131.3,205.6c196.9,376.2,1290.6,1990.6,1855,2743.1C7393.1-1452.5,8609.4-70,9585,826.9l315,293.1h-599.4h-603.7L8224.4,774.4z"/><path d="M975,323.7C651.3,196.9,318.7-135.6,196.3-468.1C100-717.5,100-761.3,100-3430s0-2712.5,96.3-2961.9c126.9-336.9,455-665,791.9-791.9c249.4-96.3,293.1-96.3,2961.9-96.3s2712.5,0,2961.9,96.3c341.2,126.8,665,450.6,796.3,791.9c91.9,249.4,91.9,301.9,83.1,1986.3l-13.1,1732.5L7441.2-3115L7100-3556.9v-1216.2c0-1176.8-4.4-1225-96.3-1413.1c-74.4-144.4-153.1-223.1-297.5-293.1L6513.7-6580H3950H1386.2l-192.5,96.3c-144.4,74.4-223.1,153.1-293.1,297.5L800-5993.7V-3430v2563.8l100.6,192.5c70,144.4,148.8,223.1,293.1,297.5c192.5,96.3,210,96.3,2187.5,96.3l1990.6,4.4L5743.7,70l371.9,350l-2450-4.4C1285.6,415.6,1206.9,411.2,975,323.7z"/></g></g>
</svg>