<svg xmlns="http://www.w3.org/2000/svg" xmlns:xlink="http://www.w3.org/1999/xlink" version="1.1" x="0px" y="0px" viewBox="0 0 1000 1000" enable-background="new 0 0 1000 1000" xml:space="preserve">
<g><g transform="translate(0.000000,511.000000) scale(0.100000,-0.100000)"><path d="M248.9,4004.6c-107.5-74.6-160.1-188.6-146.9-324.6c13.1-122.8,65.8-206.1,173.2-269.7c72.4-43.9,118.4-43.9,2405.6-50.4l2328.9-4.4V1447.7V-460.2l-2328.9-4.4C393.6-471.1,347.6-471.1,275.2-515c-125-74.6-166.7-149.1-166.7-302.6c0-155.7,52.6-252.2,171-318c65.8-35.1,252.2-37.3,2708.3-43.9c1449.5-2.2,2635.9,2.2,2635.9,13.2c0,8.8-24.1,157.9-54.8,328.9c-30.7,171-54.8,361.8-54.8,421c0,243.4,162.3,495.6,390.3,607.5c105.3,52.6,153.5,61.4,300.4,61.4c274.1,0,311.4-24.1,1149.1-780.7l732.4-657.9l780.7,6.6c769.7,6.6,782.9,6.6,861.8,57c46,28.5,98.7,87.7,125,144.7c46,92.1,46,111.8,46,2425.4c0,2293.8,0,2333.3-43.9,2421c-24.1,50.4-72.4,109.6-105.3,133.8c-59.2,43.9-98.7,43.9-4741.1,50.4l-4681.9,4.4L248.9,4004.6z M8382.5,2004.7c107.5-74.6,72.4-136-418.8-741.2c-405.7-502.2-462.7-561.4-519.7-561.4c-57,0-111.8,61.4-526.3,570.2c-412.3,508.8-462.7,578.9-456.1,642.5c11,122.8,26.3,125,993.4,125C8224.6,2039.8,8338.6,2035.4,8382.5,2004.7z"/><path d="M6152.3-368.1l-48.3-37.3l175.5-997.8c96.5-548.2,206.1-1179.8,245.6-1403.5c37.3-223.7,79-427.6,87.7-453.9c35.1-98.7,105.3-61.4,342.1,173.3c122.8,122.8,228,219.3,232.4,212.7c6.6-4.4,109.6-186.4,234.6-403.5c289.5-510.9,322.4-559.2,368.4-559.2c59.2,0,627.2,399.1,635.9,445.2c4.4,24.1-105.3,190.8-291.7,434.2c-164.5,217.1-293.9,401.3-287.3,407.9c6.6,6.6,127.2,35.1,267.5,63.6c269.7,54.8,315.8,76.7,315.8,142.5c0,37.3-2083.3,1934.2-2186.4,1991.2C6207.1-335.2,6189.6-337.4,6152.3-368.1z"/></g></g>
</svg>