<svg xmlns="http://www.w3.org/2000/svg" xmlns:xlink="http://www.w3.org/1999/xlink" version="1.1" x="0px" y="0px" viewBox="0 0 1000 1000" enable-background="new 0 0 1000 1000" xml:space="preserve">
    <g>
        <g transform="translate(0.000000,511.000000) scale(0.100000,-0.100000)">
            <path d="M606.3,2535.8c-195.6-51.8-364.4-197.5-456.4-393.1L100,2035.3V107.9v-1927.4l51.8-109.3c71-151.5,187.9-272.3,339.4-347.1l126.6-61.4H5000h4382.2l126.6,61.4c151.5,74.8,268.5,195.6,339.5,347.1l51.8,109.3V107.9v1927.4l-61.4,126.6c-74.8,151.5-195.6,268.5-347.1,339.4l-109.3,51.8l-4343.8,3.8C1636.2,2558.8,675.3,2555,606.3,2535.8z M9295.9,107.9v-1841.1H5000H704.1V107.9V1949H5000h4295.9V107.9z"/>
            <path d="M1500,1308.4c-164.9-74.8-235.9-291.5-138.1-433.4c84.4-124.7,128.5-143.8,360.6-149.6l209-7.7V107.9V-502l-209-7.7c-176.4-3.8-218.6-11.5-264.7-46c-187.9-140-187.9-374,0-514c51.8-38.4,78.6-40.3,747.9-46c690.4-5.8,694.2-3.8,780.5,38.4c92.1,47.9,172.6,168.8,172.6,264.6c0,26.8-19.2,88.2-42.2,134.2c-65.2,128.5-164.9,172.6-393.1,172.6h-178.4v611.8v611.8l209,7.7c176.4,3.8,218.6,11.5,262.7,46c84.4,61.4,126.6,130.4,136.2,222.5c13.4,111.2-28.8,207.1-120.8,276.2l-71,55.6l-701.9,3.8C1703.3,1333.3,1546,1329.5,1500,1308.4z"/>
        </g>
    </g>
</svg>
