<svg xmlns="http://www.w3.org/2000/svg" xmlns:xlink="http://www.w3.org/1999/xlink" version="1.1" x="0px" y="0px" viewBox="0 0 1000 1000" enable-background="new 0 0 1000 1000" xml:space="preserve">
<g><path d="M10,500c0-41.5,8.1-81.1,24.4-118.9s38-70.3,65.3-97.6s59.8-49,97.6-65.3s77.4-24.4,118.9-24.4h367.5c41.5,0,81.1,8.1,118.9,24.4s70.3,38,97.6,65.3c27.3,27.3,49,59.8,65.3,97.6S990,458.5,990,500c0,41.5-8.1,81.1-24.4,118.9c-16.3,37.8-38,70.3-65.3,97.6c-27.3,27.3-59.8,49-97.6,65.3s-77.4,24.4-118.9,24.4H316.2c-41.5,0-81.1-8.1-118.9-24.4s-70.3-38-97.6-65.3s-49-59.8-65.3-97.6C18.1,581.1,10,541.5,10,500L10,500z M683.8,745c33.2,0,64.8-6.5,95-19.4s56.2-30.4,78.2-52.4s39.5-48.1,52.4-78.2s19.4-61.8,19.4-95c0-33.2-6.5-64.8-19.4-95c-12.9-30.1-30.4-56.2-52.4-78.2c-22-22-48.1-39.5-78.2-52.4c-30.1-12.9-61.8-19.4-95-19.4s-64.8,6.5-95,19.4c-30.1,12.9-56.2,30.4-78.2,52.4S471,374.9,458.1,405c-12.9,30.1-19.4,61.8-19.4,95c0,33.2,6.5,64.8,19.4,95s30.4,56.2,52.4,78.2s48.1,39.5,78.2,52.4S650.6,745,683.8,745L683.8,745z"/></g>
</svg>